<svg width="800" height="600" viewBox="0 0 800 600" fill="none" xmlns="http://www.w3.org/2000/svg" role="img" aria-labelledby="title desc">
  <title id="title">Team collaboration illustration</title>
  <desc id="desc">Stylized illustration of three people standing around abstract interface panels, highlighting teamwork.</desc>
  <rect width="800" height="600" rx="48" fill="#EEF2FF"/>
  <g filter="url(#shadow)">
    <rect x="180" y="140" width="440" height="320" rx="32" fill="white"/>
  </g>
  <rect x="220" y="190" width="160" height="20" rx="10" fill="#4338CA" opacity="0.8"/>
  <rect x="220" y="230" width="280" height="16" rx="8" fill="#6366F1" opacity="0.5"/>
  <rect x="220" y="260" width="220" height="16" rx="8" fill="#A5B4FC" opacity="0.6"/>
  <rect x="220" y="292" width="320" height="160" rx="20" fill="#EEF2FF"/>
  <circle cx="280" cy="372" r="54" fill="#6366F1"/>
  <circle cx="280" cy="342" r="22" fill="white" opacity="0.9"/>
  <path d="M248 408C256 388 304 388 312 408" stroke="white" stroke-width="8" stroke-linecap="round"/>
  <circle cx="400" cy="372" r="54" fill="#4338CA"/>
  <circle cx="400" cy="342" r="22" fill="white" opacity="0.9"/>
  <path d="M368 408C376 388 424 388 432 408" stroke="white" stroke-width="8" stroke-linecap="round"/>
  <circle cx="520" cy="372" r="54" fill="#4C1D95"/>
  <circle cx="520" cy="342" r="22" fill="white" opacity="0.9"/>
  <path d="M488 408C496 388 544 388 552 408" stroke="white" stroke-width="8" stroke-linecap="round"/>
  <path d="M280 342C274 324 258 322 244 332C230 342 222 364 232 380" fill="#818CF8"/>
  <path d="M400 342C394 324 378 322 364 332C350 342 342 364 352 380" fill="#6366F1"/>
  <path d="M520 342C514 324 498 322 484 332C470 342 462 364 472 380" fill="#5B21B6"/>
  <rect x="452" y="200" width="120" height="120" rx="24" fill="#C7D2FE"/>
  <rect x="476" y="224" width="72" height="16" rx="8" fill="#6366F1" opacity="0.7"/>
  <rect x="476" y="256" width="88" height="12" rx="6" fill="#4338CA" opacity="0.6"/>
  <rect x="476" y="284" width="96" height="12" rx="6" fill="#6366F1" opacity="0.4"/>
  <path d="M560 224L608 176" stroke="#4338CA" stroke-width="8" stroke-linecap="round"/>
  <circle cx="612" cy="172" r="12" fill="#4338CA"/>
  <defs>
    <filter id="shadow" x="140" y="100" width="520" height="400" filterUnits="userSpaceOnUse" color-interpolation-filters="sRGB">
      <feFlood flood-opacity="0" result="BackgroundImageFix"/>
      <feColorMatrix in="SourceAlpha" type="matrix" values="0 0 0 0 0 0 0 0 0 0 0 0 0 0 0 0 0 0 127 0" result="hardAlpha"/>
      <feOffset dy="24"/>
      <feGaussianBlur stdDeviation="32"/>
      <feComposite in2="hardAlpha" operator="out"/>
      <feColorMatrix type="matrix" values="0 0 0 0 0.2 0 0 0 0 0.25 0 0 0 0 0.75 0 0 0 0.12 0"/>
      <feBlend mode="normal" in2="BackgroundImageFix" result="effect1_dropShadow"/>
      <feBlend mode="normal" in="SourceGraphic" in2="effect1_dropShadow" result="shape"/>
    </filter>
  </defs>
</svg>
