<svg aria-hidden="true" focusable="false" role="img" viewBox="0 0 180 180" xmlns="http://www.w3.org/2000/svg">
  <mask id=":R0:">
    <rect width="180" height="180" rx="12" fill="#ffffff"></rect>
  </mask>
  <g mask="url(#:R0:)">
    <rect width="180" height="180" fill="#000000"></rect>
    <path d="M37.534 26.417c-3.675 0-6.19 2.512-6.19 6.072 0 3.56 2.515 6.072 6.19 6.072 3.675 0 6.19-2.512 6.19-6.072 0-3.56-2.515-6.072-6.19-6.072Zm13.302 0v34.85h8.461v-23.73l19.153 23.73h10.153l-22.61-27.822 21.612-23.1H78.984l-19.343 21.295V26.417Zm32.939 0v34.85h8.225V26.417h-8.225Zm13.896 0v7.83h18.675v27.02h8.226V34.246h18.675v-7.83h-45.576Zm52.399 0v34.85h30.271v-7.83h-22.046v-6.718h20.278v-7.583h-20.278v-4.889h21.756v-7.83h-29.981Zm-70.409 9.685 6.191 8.516-6.191 8.516V36.102Zm52.399 35.195v8.516h21.756v-8.516h-21.756Zm0 16.099v27.774h8.225v-19.259h13.531v-8.515H135.561Zm0 35.195v27.775h8.225v-19.26h13.531v-8.515H135.561Zm0 35.195v27.775h8.225v-19.26h13.531v-8.515H135.561Zm17.303 9.684 6.191 8.516-6.191 8.516v-17.032Zm-52.399 0 6.19 8.516-6.19 8.516v-17.032Zm-17.684 9.684v7.831h18.675v27.02h8.225v-34.851h-26.9Zm-52.399 0v34.851h30.27v-7.831H53.29v-6.718h20.278v-7.583H53.29v-4.889h21.756v-7.83H44.347Zm52.399 0v34.851h8.226v-27.02h18.674v-7.831h-26.9Zm-52.399 43.534v7.83h18.675v27.021h8.225v-34.851H44.347Zm52.399 0v34.851h30.27v-7.83h-22.045v-6.719h20.278v-7.583h-20.278v-4.889h21.755v-7.83H96.746Z" fill="#ffffff"></path>
  </g>
</svg>
