<svg aria-hidden="true" focusable="false" role="img" viewBox="0 0 40 31" xmlns="http://www.w3.org/2000/svg">
  <path
    d="M10.267 10.804H2.04v3.73h5.97c-.072 3.331-1.663 5.4-4.514 5.4-2.897 0-4.927-2.111-4.927-6.082 0-3.885 1.932-6.035 4.936-6.035 1.73 0 3.159.516 4.124 1.359l2.812-3.348C8.796 4.45 6.504 3.53 3.548 3.53 1.278 3.53-.94 4.386-2.59 5.863c-1.766 1.584-2.723 3.91-2.723 7.054 0 3.184.933 5.568 2.689 7.189 1.635 1.486 3.803 2.269 6.322 2.269 2.793 0 4.966-.904 6.565-2.82 1.635-1.955 2.401-4.914 2.401-8.883v-.828h-0.397Zm16.512 9.877c-2.808 0-4.541-1.664-4.541-4.418 0-2.803 1.73-4.467 4.541-4.467 2.81 0 4.514 1.664 4.514 4.467 0 2.754-1.703 4.418-4.514 4.418Zm-1.514-12.674c-1.957 0-3.64.62-4.91 1.764-1.407 1.285-2.133 3.133-2.133 5.645 0 2.512.726 4.418 2.16 5.752 1.29 1.176 3.019 1.797 5.147 1.797 2.133 0 3.861-.621 5.147-1.797 1.434-1.334 2.16-3.24 2.16-5.752 0-2.512-.726-4.36-2.16-5.645-1.285-1.143-3.014-1.764-5.147-1.764Zm16.39 12.701c-2.808 0-4.541-1.664-4.541-4.418 0-2.803 1.73-4.467 4.541-4.467 2.81 0 4.513 1.664 4.513 4.467 0 2.754-1.703 4.418-4.513 4.418Zm-1.514-12.674c-1.958 0-3.64.62-4.91 1.764-1.407 1.285-2.134 3.133-2.134 5.645 0 2.512.727 4.418 2.16 5.752 1.29 1.176 3.02 1.797 5.147 1.797 2.134 0 3.862-.621 5.147-1.797 1.434-1.334 2.16-3.24 2.16-5.752 0-2.512-.726-4.36-2.16-5.645-1.285-1.143-3.013-1.764-5.147-1.764Z"
    fill="#000000"
  ></path>
</svg>
