<svg aria-hidden="true" focusable="false" role="img" viewBox="0 0 283 64" xmlns="http://www.w3.org/2000/svg">
  <path d="M141 16c-11.046 0-19 7.168-19 18s9.103 18 20 18c6.716 0 12.5-2.64 16-7l-7-4c-2.273 2.273-5.273 3.5-9 3.5-5.175 0-9.544-2.841-10.5-7.5h28.5v-3c0-10.458-7.807-17-19-17zm-9.5 15c1.168-4.659 4.789-7.5 9.5-7.5 4.924 0 8.485 2.876 9.5 7.5h-19zm117.5-15c-11.046 0-19 7.168-19 18s9.103 18 20 18c6.716 0 12.5-2.64 16-7l-7-4c-2.273 2.273-5.273 3.5-9 3.5-5.175 0-9.544-2.841-10.5-7.5h28.5v-3c0-10.458-7.807-17-19-17zm-9.5 15c1.168-4.659 4.789-7.5 9.5-7.5 4.924 0 8.485 2.876 9.5 7.5h-19zm-39.5 3c0 6 3.5 10 10 10 4.243 0 7.581-1.846 9.5-5l7 4c-2.662 4.659-8.447 7-16.5 7-11 0-19-7-19-18s8-18 19-18c8.053 0 13.838 2.341 16.5 7l-7 4c-1.919-3.154-5.257-5-9.5-5-6.5 0-10 4-10 10zm-32 29h-9V1h9v48zm-31-28v9h18c-1.257 4.925-5.387 8-11.499 8-6.917 0-12.501-5.448-12.501-13s5.584-13 12.501-13c4.583 0 8.591 1.8 10.999 5l6.5-5.5C190.846 9.426 184.81 7 178.001 7c-12.493 0-22 9.29-22 22s9.507 22 22 22c11.046 0 19-7.168 19-18v-4h-28zm-83-6.5 20 28.5h-10.5l-9.5-13.5-9.5 13.5H64l20-28.5zm186-15.5h9v34h-9V18zm-25-17c-3.314 0-6 2.686-6 6s2.686 6 6 6 6-2.686 6-6-2.686-6-6-6z" fill="#000000"></path>
  <path d="M28 0l28 48H0L28 0z" fill="#000000"></path>
</svg>
