<svg xmlns="http://www.w3.org/2000/svg" viewBox="0 0 320 200" role="img" aria-labelledby="title desc">
  <title id="title">Analytics dashboard illustration</title>
  <desc id="desc">A stylised dashboard with charts and metrics.</desc>
  <defs>
    <linearGradient id="panel" x1="0%" y1="0%" x2="100%" y2="100%">
      <stop offset="0%" stop-color="#1e293b" />
      <stop offset="100%" stop-color="#0f172a" />
    </linearGradient>
    <linearGradient id="accent" x1="0%" y1="0%" x2="0%" y2="100%">
      <stop offset="0%" stop-color="#22d3ee" />
      <stop offset="100%" stop-color="#0ea5e9" />
    </linearGradient>
  </defs>
  <rect width="320" height="200" rx="16" fill="url(#panel)" />
  <rect x="24" y="32" width="272" height="136" rx="12" fill="#0f172a" opacity="0.6" />
  <rect x="40" y="48" width="96" height="12" rx="6" fill="#38bdf8" opacity="0.8" />
  <rect x="40" y="70" width="72" height="10" rx="5" fill="#334155" />
  <rect x="40" y="86" width="88" height="10" rx="5" fill="#334155" />
  <rect x="40" y="102" width="64" height="10" rx="5" fill="#334155" />
  <path d="M140 150 L180 90 L210 120 L240 76 L272 110" fill="none" stroke="url(#accent)" stroke-width="8" stroke-linecap="round" stroke-linejoin="round" opacity="0.9" />
  <g opacity="0.6">
    <rect x="144" y="60" width="32" height="44" rx="6" fill="#1f2937" />
    <rect x="186" y="40" width="32" height="64" rx="6" fill="#1f2937" />
    <rect x="228" y="72" width="32" height="32" rx="6" fill="#1f2937" />
  </g>
  <rect x="144" y="92" width="32" height="12" rx="6" fill="#22d3ee" opacity="0.9" />
  <rect x="186" y="72" width="32" height="12" rx="6" fill="#22d3ee" opacity="0.9" />
  <rect x="228" y="104" width="32" height="12" rx="6" fill="#22d3ee" opacity="0.9" />
</svg>
