<svg xmlns="http://www.w3.org/2000/svg" viewBox="0 0 320 200" role="img" aria-labelledby="title desc">
  <title id="title">Realtime collaboration illustration</title>
  <desc id="desc">Two overlapping avatars sharing documents in realtime.</desc>
  <defs>
    <linearGradient id="bubble" x1="0%" y1="0%" x2="100%" y2="100%">
      <stop offset="0%" stop-color="#4ade80" />
      <stop offset="100%" stop-color="#22c55e" />
    </linearGradient>
    <linearGradient id="wave" x1="0%" y1="0%" x2="100%" y2="0%">
      <stop offset="0%" stop-color="#a855f7" />
      <stop offset="100%" stop-color="#6366f1" />
    </linearGradient>
  </defs>
  <rect width="320" height="200" rx="18" fill="#111827" />
  <path d="M0 150 C80 120 120 200 200 160 C260 140 320 180 320 180 L320 200 L0 200 Z" fill="url(#wave)" opacity="0.4" />
  <circle cx="110" cy="92" r="48" fill="#1f2937" />
  <circle cx="190" cy="108" r="56" fill="#1f2937" />
  <circle cx="112" cy="86" r="32" fill="url(#bubble)" opacity="0.9" />
  <circle cx="184" cy="114" r="36" fill="#38bdf8" opacity="0.85" />
  <rect x="76" y="120" width="80" height="14" rx="7" fill="#d1fae5" opacity="0.8" />
  <rect x="162" y="140" width="96" height="14" rx="7" fill="#bfdbfe" opacity="0.8" />
  <path d="M136 82 h24 l-12 20 z" fill="#ecfdf5" opacity="0.95" />
  <rect x="184" y="92" width="44" height="16" rx="8" fill="#0f172a" opacity="0.7" />
  <rect x="204" y="88" width="12" height="24" rx="6" fill="#ecfeff" opacity="0.9" />
</svg>
